<svg width="24" height="24" viewBox="0 0 24 24" fill="none" xmlns="http://www.w3.org/2000/svg">
<rect width="24" height="24" rx="7" fill="black"/>
<path d="M4 12C4 14.1217 4.84285 16.1566 6.34315 17.6569C7.84344 19.1571 9.87827 20 12 20C14.1217 20 16.1566 19.1571 17.6569 17.6569C19.1571 16.1566 20 14.1217 20 12C20 9.87827 19.1571 7.84344 17.6569 6.34315C16.1566 4.84285 14.1217 4 12 4M16.4444 12C16.4444 11.121 16.1838 10.2617 15.6954 9.5308C15.2071 8.79992 14.5129 8.23026 13.7008 7.89387C12.8887 7.55748 11.9951 7.46947 11.1329 7.64096C10.2708 7.81245 9.47887 8.23574 8.85731 8.85731C8.23574 9.47887 7.81245 10.2708 7.64096 11.1329C7.46947 11.9951 7.55748 12.8887 7.89387 13.7008C8.23026 14.5129 8.79992 15.2071 9.5308 15.6954C10.2617 16.1838 11.121 16.4444 12 16.4444" stroke="white" stroke-width="1.77778" stroke-linecap="round" stroke-linejoin="round"/>
</svg>
