<svg width="23" height="23" viewBox="0 0 23 23" fill="none" xmlns="http://www.w3.org/2000/svg">
<g clip-path="url(#clip0_10_31)">
<path d="M9.63077 18.5214C9.63075 18.3818 9.60002 18.2438 9.54075 18.1174C9.48149 17.991 9.39514 17.8791 9.28783 17.7898C9.18051 17.7004 9.05487 17.6358 8.91978 17.6004C8.7847 17.565 8.64349 17.5598 8.50616 17.5851C7.25975 17.8138 5.68605 17.8482 5.26763 16.6729C4.90278 15.7627 4.29843 14.9682 3.51865 14.3735C3.46302 14.3433 3.40999 14.3084 3.36012 14.2694C3.29188 14.0894 3.17066 13.9343 3.01247 13.8245C2.85427 13.7148 2.66653 13.6556 2.47401 13.6548H2.46936C2.21762 13.6547 1.97609 13.7543 1.79765 13.9319C1.6192 14.1095 1.51837 14.3505 1.51723 14.6023C1.51351 15.3787 2.28941 15.8761 2.60418 16.0444C2.97536 16.4174 3.27367 16.8563 3.48379 17.3387C3.83061 18.3131 4.83852 19.7915 7.73582 19.601C7.73677 19.6344 7.73767 19.666 7.73814 19.6949L7.74232 19.9496C7.74232 20.2022 7.84263 20.4443 8.02119 20.6229C8.19975 20.8015 8.44193 20.9018 8.69445 20.9018C8.94697 20.9018 9.18914 20.8015 9.3677 20.6229C9.54626 20.4443 9.64658 20.2022 9.64658 19.9496L9.64193 19.6465C9.63728 19.4661 9.63077 19.2048 9.63077 18.5214ZM19.7871 4.1195C19.8173 4.00049 19.8471 3.86846 19.8731 3.71969C20.0271 2.65862 19.8929 1.57568 19.4845 0.58433C19.4329 0.455091 19.3538 0.338688 19.2525 0.243281C19.1512 0.147873 19.0303 0.0757713 18.8982 0.0320292C18.5593 -0.0823404 17.3078 -0.307357 14.9144 1.22219C12.925 0.754022 10.8541 0.754022 8.86462 1.22219C6.48104 -0.284953 5.23601 -0.0804362 4.90035 0.0274208C4.76502 0.0693911 4.6408 0.141111 4.53678 0.237325C4.43277 0.333539 4.3516 0.451807 4.29923 0.583463C3.88248 1.59384 3.7497 2.69888 3.91521 3.77922C3.93846 3.90103 3.96356 4.01354 3.9896 4.11674C3.20083 5.16736 2.7807 6.44885 2.79433 7.76253C2.79176 8.05563 2.80526 8.34865 2.83478 8.64027C3.15279 13.0225 6.00917 14.3382 7.99941 14.7901C7.95804 14.9091 7.92039 15.0365 7.88691 15.1713C7.82725 15.4163 7.86717 15.6749 7.99793 15.8905C8.12868 16.1061 8.33959 16.261 8.58441 16.3213C8.82923 16.3816 9.08798 16.3424 9.30391 16.2122C9.51984 16.082 9.67534 15.8715 9.7363 15.6269C9.79689 15.3097 9.95217 15.0182 10.1817 14.791C10.3205 14.6695 10.4209 14.5103 10.4709 14.3327C10.5209 14.1552 10.5181 13.9669 10.4631 13.7909C10.408 13.6148 10.303 13.4586 10.1607 13.3412C10.0185 13.2237 9.8452 13.1502 9.66192 13.1294C6.37318 12.7538 4.94544 11.4139 4.73066 8.46548C4.70687 8.23195 4.69616 7.99727 4.69859 7.76254C4.68331 6.82627 4.99263 5.91359 5.574 5.17953C5.63242 5.103 5.69464 5.02945 5.76043 4.95916C5.877 4.82872 5.95537 4.66868 5.98695 4.49662C6.01853 4.32456 6.00209 4.14712 5.93943 3.98379C5.87519 3.81196 5.82573 3.63496 5.79159 3.45472C5.71402 2.9422 5.73946 2.41937 5.86643 1.9168C6.69395 2.15053 7.47278 2.53097 8.16582 3.04001C8.28042 3.11635 8.41011 3.16715 8.54607 3.18896C8.68203 3.21078 8.8211 3.20311 8.95383 3.16647C10.8782 2.64423 12.907 2.64456 14.8312 3.16742C14.9646 3.20402 15.1044 3.21126 15.241 3.18863C15.3775 3.16599 15.5075 3.11403 15.622 3.03633C16.3118 2.52516 17.0873 2.14132 17.9121 1.90288C18.0385 2.39338 18.0668 2.904 17.9953 3.40546C17.9608 3.60306 17.907 3.79678 17.8345 3.98381C17.7718 4.14714 17.7554 4.32457 17.7869 4.49664C17.8185 4.6687 17.8969 4.82874 18.0135 4.95918C18.0869 5.04193 18.1604 5.13119 18.2264 5.21487C18.8036 5.9365 19.1077 6.8387 19.0851 7.76253C19.0868 8.00972 19.0749 8.2568 19.0493 8.50266C18.8396 11.412 17.4063 12.7528 14.1022 13.1294C13.9189 13.1503 13.7456 13.224 13.6034 13.3415C13.4612 13.4591 13.3562 13.6154 13.3012 13.7915C13.2461 13.9677 13.2435 14.156 13.2935 14.3336C13.3435 14.5112 13.4441 14.6704 13.5829 14.7919C13.8197 15.0252 13.9753 15.3283 14.0269 15.6566C14.0913 15.9115 14.1208 16.1739 14.1148 16.4368V18.659C14.1055 19.2755 14.1055 19.7376 14.1055 19.9496C14.1055 20.2021 14.2058 20.4443 14.3843 20.6228C14.5629 20.8014 14.8051 20.9017 15.0576 20.9017C15.3101 20.9017 15.5523 20.8014 15.7309 20.6228C15.9094 20.4443 16.0097 20.2021 16.0097 19.9496C16.0097 19.7432 16.0097 19.2903 16.019 18.6739V16.4368C16.0267 16.0157 15.9771 15.5957 15.8717 15.188C15.8415 15.0542 15.8046 14.922 15.761 14.7919C17.2094 14.5513 18.5255 13.8045 19.4749 12.6845C20.4243 11.5645 20.9455 10.1439 20.9456 8.67562C20.977 8.37229 20.9916 8.06747 20.9894 7.76253C21.0105 6.44743 20.5869 5.16371 19.7871 4.1195Z" fill="white"/>
</g>
<defs>
<clipPath id="clip0_10_31">
<rect width="22.8511" height="22.8511" fill="white" transform="translate(0.0425568)"/>
</clipPath>
</defs>
</svg>
