<svg width="24" height="24" viewBox="0 0 24 24" fill="none" xmlns="http://www.w3.org/2000/svg">
<g clip-path="url(#clip0_157_20)">
<path d="M3 5.09091C3 4.48484 3.21397 3.98484 3.64189 3.59091C4.06981 3.19696 4.62613 3 5.31081 3C5.98328 3 6.52734 3.19393 6.94305 3.58182C7.37097 3.98182 7.58494 4.50302 7.58494 5.14545C7.58494 5.72727 7.3771 6.21211 6.96139 6.6C6.53347 7 5.97104 7.2 5.27413 7.2H5.25579C4.58333 7.2 4.03926 7 3.62355 6.6C3.20784 6.2 3 5.69696 3 5.09091ZM3.23842 21V8.85455H7.30985V21H3.23842ZM9.56564 21H13.6371V14.2182C13.6371 13.7939 13.686 13.4667 13.7838 13.2364C13.9549 12.8242 14.2148 12.4757 14.5632 12.1909C14.9117 11.9061 15.3488 11.7636 15.8745 11.7636C17.2439 11.7636 17.9286 12.6788 17.9286 14.5091V21H22V14.0364C22 12.2424 21.5721 10.8818 20.7162 9.95455C19.8604 9.02727 18.7294 8.56364 17.3234 8.56364C15.7461 8.56364 14.5174 9.23636 13.6371 10.5818V10.6182H13.6187L13.6371 10.5818V8.85455H9.56564C9.59008 9.24242 9.60232 10.4485 9.60232 12.4727C9.60232 14.497 9.59008 17.3394 9.56564 21Z" fill="white"/>
</g>
<defs>
<clipPath id="clip0_157_20">
<rect width="24" height="24" fill="white"/>
</clipPath>
</defs>
</svg>
