<svg width="178" height="49" viewBox="0 0 178 49" fill="none" xmlns="http://www.w3.org/2000/svg">
<rect width="177.564" height="48.8511" rx="24.4255" fill="#D6D6FF" fill-opacity="0.1"/>
<path d="M21.6622 24.4255C21.6622 26.5099 22.4902 28.5089 23.9641 29.9827C25.438 31.4566 27.4369 32.2846 29.5213 32.2846C31.6056 32.2846 33.6046 31.4566 35.0785 29.9827C36.5523 28.5089 37.3803 26.5099 37.3803 24.4255C37.3803 22.3412 36.5523 20.3422 35.0785 18.8683C33.6046 17.3945 31.6056 16.5665 29.5213 16.5665M33.8874 24.4255C33.8874 23.562 33.6313 22.7178 33.1516 21.9998C32.6718 21.2818 31.9899 20.7222 31.1921 20.3918C30.3943 20.0613 29.5164 19.9748 28.6695 20.1433C27.8225 20.3118 27.0446 20.7276 26.434 21.3382C25.8233 21.9488 25.4075 22.7268 25.239 23.5737C25.0706 24.4207 25.157 25.2986 25.4875 26.0964C25.818 26.8942 26.3776 27.5761 27.0956 28.0558C27.8136 28.5356 28.6577 28.7917 29.5213 28.7917" stroke="white" stroke-width="1.74645" stroke-linecap="round" stroke-linejoin="round"/>
<path d="M59.4272 21.9421C59.1187 21.3479 58.6903 20.9023 58.1418 20.6053C57.5934 20.2968 56.9593 20.1426 56.2395 20.1426C55.4511 20.1426 54.7485 20.3196 54.1315 20.6738C53.5145 21.028 53.0289 21.5308 52.6747 22.182C52.332 22.8333 52.1606 23.5874 52.1606 24.4443C52.1606 25.3012 52.332 26.061 52.6747 26.7237C53.0289 27.3749 53.5145 27.8776 54.1315 28.2318C54.7485 28.586 55.4511 28.7631 56.2395 28.7631C57.3021 28.7631 58.1647 28.4661 58.8274 27.8719C59.49 27.2778 59.8957 26.4723 60.0442 25.4554H55.5711V23.8958H62.1351V25.4211C62.0094 26.3466 61.678 27.1978 61.141 27.9748C60.6155 28.7517 59.9242 29.3744 59.0673 29.8428C58.2218 30.2999 57.2792 30.5284 56.2395 30.5284C55.1198 30.5284 54.0972 30.2713 53.1717 29.7571C52.2463 29.2316 51.5093 28.506 50.9609 27.5806C50.4239 26.6551 50.1554 25.6097 50.1554 24.4443C50.1554 23.2789 50.4239 22.2334 50.9609 21.308C51.5093 20.3825 52.2463 19.6627 53.1717 19.1485C54.1086 18.623 55.1312 18.3602 56.2395 18.3602C57.5077 18.3602 58.6331 18.6744 59.6157 19.3028C60.6098 19.9198 61.3296 20.7995 61.7752 21.9421H59.4272ZM64.7133 19.7312C64.3591 19.7312 64.062 19.6113 63.8221 19.3713C63.5822 19.1314 63.4622 18.8343 63.4622 18.4801C63.4622 18.1259 63.5822 17.8289 63.8221 17.5889C64.062 17.349 64.3591 17.229 64.7133 17.229C65.0561 17.229 65.3474 17.349 65.5874 17.5889C65.8273 17.8289 65.9473 18.1259 65.9473 18.4801C65.9473 18.8343 65.8273 19.1314 65.5874 19.3713C65.3474 19.6113 65.0561 19.7312 64.7133 19.7312ZM65.673 20.9823V30.4255H63.7193V20.9823H65.673ZM70.1748 22.5762V27.8034C70.1748 28.1576 70.2548 28.4146 70.4147 28.5746C70.5861 28.7231 70.8718 28.7974 71.2716 28.7974H72.4713V30.4255H70.9289C70.0491 30.4255 69.375 30.2199 68.9066 29.8086C68.4381 29.3972 68.2039 28.7288 68.2039 27.8034V22.5762H67.0899V20.9823H68.2039V18.6344H70.1748V20.9823H72.4713V22.5762H70.1748ZM78.8137 20.8281C79.5335 20.8281 80.1733 20.9823 80.7332 21.2908C81.3045 21.5993 81.7501 22.0563 82.07 22.6619C82.4013 23.2674 82.567 23.9987 82.567 24.8556V30.4255H80.6304V25.1469C80.6304 24.3014 80.419 23.6559 79.9962 23.2103C79.5735 22.7533 78.9965 22.5248 78.2653 22.5248C77.534 22.5248 76.9513 22.7533 76.5172 23.2103C76.0944 23.6559 75.8831 24.3014 75.8831 25.1469V30.4255H73.9293V17.7432H75.8831V22.0792C76.2144 21.6793 76.6314 21.3708 77.1341 21.1537C77.6483 20.9366 78.2081 20.8281 78.8137 20.8281ZM93.2684 20.9823V30.4255H91.3146V29.3115C91.0061 29.7 90.6005 30.0085 90.0978 30.237C89.6065 30.4541 89.0809 30.5626 88.5211 30.5626C87.7784 30.5626 87.11 30.4084 86.5159 30.0999C85.9332 29.7914 85.4705 29.3344 85.1277 28.7288C84.7964 28.1233 84.6307 27.3921 84.6307 26.5351V20.9823H86.5673V26.2438C86.5673 27.0893 86.7787 27.7405 87.2014 28.1976C87.6242 28.6431 88.2012 28.8659 88.9324 28.8659C89.6636 28.8659 90.2406 28.6431 90.6634 28.1976C91.0975 27.7405 91.3146 27.0893 91.3146 26.2438V20.9823H93.2684ZM97.4572 22.3877C97.7886 21.9306 98.2399 21.5593 98.8112 21.2737C99.3939 20.9766 100.039 20.8281 100.748 20.8281C101.582 20.8281 102.336 21.028 103.01 21.4279C103.684 21.8278 104.215 22.3991 104.604 23.1418C104.992 23.873 105.187 24.7128 105.187 25.6611C105.187 26.6094 104.992 27.4606 104.604 28.2147C104.215 28.9574 103.678 29.5401 102.993 29.9628C102.319 30.3741 101.57 30.5798 100.748 30.5798C100.017 30.5798 99.3653 30.437 98.794 30.1513C98.2342 29.8657 97.7886 29.5001 97.4572 29.0545V30.4255H95.5035V17.7432H97.4572V22.3877ZM103.199 25.6611C103.199 25.0098 103.061 24.45 102.787 23.9815C102.524 23.5017 102.17 23.1418 101.725 22.9018C101.29 22.6505 100.822 22.5248 100.319 22.5248C99.828 22.5248 99.3596 22.6505 98.914 22.9018C98.4798 23.1532 98.1256 23.5188 97.8514 23.9987C97.5886 24.4785 97.4572 25.0441 97.4572 25.6954C97.4572 26.3466 97.5886 26.9179 97.8514 27.4092C98.1256 27.8891 98.4798 28.2547 98.914 28.506C99.3596 28.7574 99.828 28.8831 100.319 28.8831C100.822 28.8831 101.29 28.7574 101.725 28.506C102.17 28.2433 102.524 27.8662 102.787 27.3749C103.061 26.8836 103.199 26.3123 103.199 25.6611ZM110.234 24.4443C110.234 23.2789 110.502 22.2334 111.039 21.308C111.588 20.3825 112.325 19.6627 113.25 19.1485C114.187 18.623 115.21 18.3602 116.318 18.3602C117.586 18.3602 118.712 18.6744 119.694 19.3028C120.688 19.9198 121.408 20.7995 121.854 21.9421H119.506C119.197 21.3137 118.769 20.8452 118.22 20.5367C117.672 20.2282 117.038 20.074 116.318 20.074C115.53 20.074 114.827 20.2511 114.21 20.6053C113.593 20.9595 113.107 21.4679 112.753 22.1306C112.41 22.7933 112.239 23.5645 112.239 24.4443C112.239 25.324 112.41 26.0953 112.753 26.7579C113.107 27.4206 113.593 27.9348 114.21 28.3004C114.827 28.6546 115.53 28.8317 116.318 28.8317C117.038 28.8317 117.672 28.6774 118.22 28.3689C118.769 28.0604 119.197 27.592 119.506 26.9636H121.854C121.408 28.1061 120.688 28.9859 119.694 29.6029C118.712 30.2199 117.586 30.5284 116.318 30.5284C115.198 30.5284 114.176 30.2713 113.25 29.7571C112.325 29.2316 111.588 28.506 111.039 27.5806C110.502 26.6551 110.234 25.6097 110.234 24.4443ZM124.792 19.7312C124.438 19.7312 124.14 19.6113 123.901 19.3713C123.661 19.1314 123.541 18.8343 123.541 18.4801C123.541 18.1259 123.661 17.8289 123.901 17.5889C124.14 17.349 124.438 17.229 124.792 17.229C125.135 17.229 125.426 17.349 125.666 17.5889C125.906 17.8289 126.026 18.1259 126.026 18.4801C126.026 18.8343 125.906 19.1314 125.666 19.3713C125.426 19.6113 125.135 19.7312 124.792 19.7312ZM125.751 20.9823V30.4255H123.798V20.9823H125.751ZM129.928 22.3534C130.213 21.8735 130.59 21.5022 131.059 21.2394C131.539 20.9652 132.104 20.8281 132.755 20.8281V22.8504H132.258C131.493 22.8504 130.91 23.0446 130.51 23.4331C130.122 23.8216 129.928 24.4957 129.928 25.4554V30.4255H127.974V20.9823H129.928V22.3534ZM133.557 25.6954C133.557 24.7242 133.752 23.873 134.14 23.1418C134.54 22.3991 135.088 21.8278 135.785 21.4279C136.482 21.028 137.282 20.8281 138.185 20.8281C139.327 20.8281 140.27 21.1023 141.012 21.6507C141.767 22.1877 142.275 22.9589 142.538 23.9644H140.43C140.258 23.4959 139.984 23.1303 139.607 22.8675C139.23 22.6048 138.756 22.4734 138.185 22.4734C137.385 22.4734 136.745 22.759 136.265 23.3303C135.797 23.8901 135.562 24.6785 135.562 25.6954C135.562 26.7122 135.797 27.5063 136.265 28.0776C136.745 28.6489 137.385 28.9345 138.185 28.9345C139.316 28.9345 140.064 28.4375 140.43 27.4435H142.538C142.264 28.4032 141.749 29.1687 140.995 29.74C140.241 30.2999 139.304 30.5798 138.185 30.5798C137.282 30.5798 136.482 30.3798 135.785 29.9799C135.088 29.5686 134.54 28.9973 134.14 28.2661C133.752 27.5234 133.557 26.6665 133.557 25.6954ZM146.096 17.7432V30.4255H144.142V17.7432H146.096ZM156.973 25.4726C156.973 25.8268 156.95 26.1467 156.904 26.4323H149.689C149.746 27.1864 150.026 27.7919 150.529 28.249C151.032 28.706 151.649 28.9345 152.38 28.9345C153.431 28.9345 154.174 28.4946 154.608 27.6149H156.716C156.43 28.4832 155.91 29.1973 155.156 29.7571C154.414 30.3056 153.488 30.5798 152.38 30.5798C151.477 30.5798 150.666 30.3798 149.946 29.9799C149.238 29.5686 148.678 28.9973 148.267 28.2661C147.867 27.5234 147.667 26.6665 147.667 25.6954C147.667 24.7242 147.861 23.873 148.25 23.1418C148.65 22.3991 149.204 21.8278 149.912 21.4279C150.632 21.028 151.455 20.8281 152.38 20.8281C153.271 20.8281 154.065 21.0223 154.762 21.4108C155.459 21.7993 156.002 22.3477 156.39 23.0561C156.779 23.753 156.973 24.5585 156.973 25.4726ZM154.934 24.8556C154.922 24.1358 154.665 23.5588 154.162 23.1246C153.66 22.6904 153.037 22.4734 152.294 22.4734C151.62 22.4734 151.043 22.6904 150.563 23.1246C150.083 23.5474 149.798 24.1244 149.706 24.8556H154.934Z" fill="white"/>
</svg>
