<svg width="180" height="49" viewBox="0 0 180 49" fill="none" xmlns="http://www.w3.org/2000/svg">
<rect width="179.457" height="48.8511" rx="24.4255" fill="#D6D6FF" fill-opacity="0.1"/>
<path d="M28.6308 32.5214C28.6307 32.3818 28.6 32.2438 28.5408 32.1174C28.4815 31.991 28.3951 31.8791 28.2878 31.7898C28.1805 31.7004 28.0549 31.6358 27.9198 31.6004C27.7847 31.565 27.6435 31.5598 27.5062 31.5851C26.2598 31.8138 24.686 31.8482 24.2676 30.6729C23.9028 29.7627 23.2984 28.9682 22.5187 28.3735C22.463 28.3433 22.41 28.3084 22.3601 28.2694C22.2919 28.0894 22.1707 27.9343 22.0125 27.8245C21.8543 27.7148 21.6665 27.6556 21.474 27.6548H21.4694C21.2176 27.6547 20.9761 27.7543 20.7976 27.9319C20.6192 28.1095 20.5184 28.3505 20.5172 28.6023C20.5135 29.3787 21.2894 29.8761 21.6042 30.0444C21.9754 30.4174 22.2737 30.8563 22.4838 31.3387C22.8306 32.3131 23.8385 33.7915 26.7358 33.601C26.7368 33.6344 26.7377 33.666 26.7381 33.6949L26.7423 33.9496C26.7423 34.2022 26.8426 34.4443 27.0212 34.6229C27.1998 34.8015 27.4419 34.9018 27.6944 34.9018C27.947 34.9018 28.1891 34.8015 28.3677 34.6229C28.5463 34.4443 28.6466 34.2022 28.6466 33.9496L28.6419 33.6465C28.6373 33.4661 28.6308 33.2048 28.6308 32.5214ZM38.7871 18.1195C38.8173 18.0005 38.8471 17.8685 38.8731 17.7197C39.0271 16.6586 38.8929 15.5757 38.4845 14.5843C38.4329 14.4551 38.3538 14.3387 38.2525 14.2433C38.1512 14.1479 38.0303 14.0758 37.8982 14.032C37.5593 13.9177 36.3078 13.6926 33.9144 15.2222C31.925 14.754 29.8541 14.754 27.8646 15.2222C25.481 13.715 24.236 13.9196 23.9004 14.0274C23.765 14.0694 23.6408 14.1411 23.5368 14.2373C23.4328 14.3335 23.3516 14.4518 23.2992 14.5835C22.8825 15.5938 22.7497 16.6989 22.9152 17.7792C22.9385 17.901 22.9636 18.0135 22.9896 18.1167C22.2008 19.1674 21.7807 20.4488 21.7943 21.7625C21.7918 22.0556 21.8053 22.3487 21.8348 22.6403C22.1528 27.0225 25.0092 28.3382 26.9994 28.7901C26.958 28.9091 26.9204 29.0365 26.8869 29.1713C26.8272 29.4163 26.8672 29.6749 26.9979 29.8905C27.1287 30.1061 27.3396 30.261 27.5844 30.3213C27.8292 30.3816 28.088 30.3424 28.3039 30.2122C28.5198 30.082 28.6753 29.8715 28.7363 29.6269C28.7969 29.3097 28.9522 29.0182 29.1817 28.791C29.3205 28.6695 29.4209 28.5103 29.4709 28.3327C29.5209 28.1552 29.5181 27.9669 29.4631 27.7909C29.408 27.6148 29.303 27.4586 29.1607 27.3412C29.0185 27.2237 28.8452 27.1502 28.6619 27.1294C25.3732 26.7538 23.9454 25.4139 23.7307 22.4655C23.7069 22.232 23.6962 21.9973 23.6986 21.7625C23.6833 20.8263 23.9926 19.9136 24.574 19.1795C24.6324 19.103 24.6946 19.0294 24.7604 18.9592C24.877 18.8287 24.9554 18.6687 24.987 18.4966C25.0185 18.3246 25.0021 18.1471 24.9394 17.9838C24.8752 17.812 24.8257 17.635 24.7916 17.4547C24.714 16.9422 24.7395 16.4194 24.8664 15.9168C25.694 16.1505 26.4728 16.531 27.1658 17.04C27.2804 17.1163 27.4101 17.1671 27.5461 17.189C27.682 17.2108 27.8211 17.2031 27.9538 17.1665C29.8782 16.6442 31.907 16.6446 33.8312 17.1674C33.9646 17.204 34.1044 17.2113 34.241 17.1886C34.3775 17.166 34.5075 17.114 34.622 17.0363C35.3118 16.5252 36.0873 16.1413 36.9121 15.9029C37.0385 16.3934 37.0668 16.904 36.9953 17.4055C36.9608 17.6031 36.907 17.7968 36.8345 17.9838C36.7718 18.1471 36.7554 18.3246 36.7869 18.4966C36.8185 18.6687 36.8969 18.8287 37.0135 18.9592C37.0869 19.0419 37.1604 19.1312 37.2264 19.2149C37.8036 19.9365 38.1077 20.8387 38.0851 21.7625C38.0868 22.0097 38.0749 22.2568 38.0493 22.5027C37.8396 25.412 36.4063 26.7528 33.1022 27.1294C32.9189 27.1503 32.7456 27.224 32.6034 27.3415C32.4612 27.4591 32.3562 27.6154 32.3012 27.7915C32.2461 27.9677 32.2435 28.156 32.2935 28.3336C32.3435 28.5112 32.4441 28.6704 32.5829 28.7919C32.8197 29.0252 32.9753 29.3283 33.0269 29.6566C33.0913 29.9115 33.1208 30.1739 33.1148 30.4368V32.659C33.1055 33.2755 33.1055 33.7376 33.1055 33.9496C33.1055 34.2021 33.2058 34.4443 33.3843 34.6228C33.5629 34.8014 33.8051 34.9017 34.0576 34.9017C34.3101 34.9017 34.5523 34.8014 34.7309 34.6228C34.9094 34.4443 35.0097 34.2021 35.0097 33.9496C35.0097 33.7432 35.0097 33.2903 35.019 32.6739V30.4368C35.0267 30.0157 34.9771 29.5957 34.8717 29.188C34.8415 29.0542 34.8046 28.922 34.761 28.7919C36.2094 28.5513 37.5255 27.8045 38.4749 26.6845C39.4243 25.5645 39.9455 24.1439 39.9456 22.6756C39.977 22.3723 39.9916 22.0675 39.9894 21.7625C40.0105 20.4474 39.5869 19.1637 38.7871 18.1195Z" fill="white"/>
<path d="M61.3208 21.9421C61.0123 21.3479 60.5839 20.9024 60.0355 20.6053C59.487 20.2968 58.8529 20.1426 58.1331 20.1426C57.3447 20.1426 56.6421 20.3196 56.0251 20.6738C55.4081 21.028 54.9225 21.5308 54.5683 22.182C54.2256 22.8333 54.0542 23.5874 54.0542 24.4443C54.0542 25.3012 54.2256 26.061 54.5683 26.7237C54.9225 27.3749 55.4081 27.8776 56.0251 28.2318C56.6421 28.586 57.3447 28.7631 58.1331 28.7631C59.1957 28.7631 60.0583 28.4661 60.721 27.8719C61.3837 27.2778 61.7893 26.4723 61.9378 25.4554H57.4647V23.8958H64.0287V25.4211C63.903 26.3466 63.5717 27.1978 63.0347 27.9748C62.5091 28.7517 61.8178 29.3744 60.9609 29.8428C60.1154 30.2999 59.1728 30.5284 58.1331 30.5284C57.0134 30.5284 55.9908 30.2713 55.0654 29.7571C54.1399 29.2316 53.4029 28.506 52.8545 27.5806C52.3175 26.6551 52.049 25.6097 52.049 24.4443C52.049 23.2789 52.3175 22.2334 52.8545 21.308C53.4029 20.3825 54.1399 19.6627 55.0654 19.1485C56.0022 18.623 57.0248 18.3602 58.1331 18.3602C59.4013 18.3602 60.5268 18.6744 61.5094 19.3028C62.5034 19.9198 63.2232 20.7995 63.6688 21.9421H61.3208ZM66.6069 19.7312C66.2527 19.7312 65.9557 19.6113 65.7157 19.3713C65.4758 19.1314 65.3558 18.8343 65.3558 18.4801C65.3558 18.1259 65.4758 17.8289 65.7157 17.5889C65.9557 17.349 66.2527 17.229 66.6069 17.229C66.9497 17.229 67.241 17.349 67.481 17.5889C67.7209 17.8289 67.8409 18.1259 67.8409 18.4801C67.8409 18.8343 67.7209 19.1314 67.481 19.3713C67.241 19.6113 66.9497 19.7312 66.6069 19.7312ZM67.5667 20.9823V30.4255H65.6129V20.9823H67.5667ZM72.0684 22.5762V27.8034C72.0684 28.1576 72.1484 28.4146 72.3084 28.5746C72.4797 28.7231 72.7654 28.7974 73.1653 28.7974H74.365V30.4255H72.8225C71.9427 30.4255 71.2686 30.2199 70.8002 29.8086C70.3317 29.3972 70.0975 28.7288 70.0975 27.8034V22.5762H68.9835V20.9823H70.0975V18.6344H72.0684V20.9823H74.365V22.5762H72.0684ZM80.7073 20.8281C81.4271 20.8281 82.067 20.9823 82.6268 21.2908C83.1981 21.5993 83.6437 22.0563 83.9636 22.6619C84.2949 23.2674 84.4606 23.9987 84.4606 24.8556V30.4255H82.524V25.1469C82.524 24.3014 82.3126 23.6559 81.8899 23.2103C81.4671 22.7533 80.8901 22.5248 80.1589 22.5248C79.4277 22.5248 78.845 22.7533 78.4108 23.2103C77.988 23.6559 77.7767 24.3014 77.7767 25.1469V30.4255H75.8229V17.7432H77.7767V22.0792C78.108 21.6793 78.525 21.3708 79.0278 21.1537C79.5419 20.9366 80.1018 20.8281 80.7073 20.8281ZM95.162 20.9823V30.4255H93.2082V29.3115C92.8998 29.7 92.4941 30.0085 91.9914 30.237C91.5001 30.4541 90.9745 30.5626 90.4147 30.5626C89.672 30.5626 89.0036 30.4084 88.4095 30.0999C87.8268 29.7914 87.3641 29.3344 87.0213 28.7288C86.69 28.1233 86.5243 27.3921 86.5243 26.5351V20.9823H88.4609V26.2438C88.4609 27.0893 88.6723 27.7405 89.095 28.1976C89.5178 28.6431 90.0948 28.8659 90.826 28.8659C91.5573 28.8659 92.1342 28.6431 92.557 28.1976C92.9912 27.7405 93.2082 27.0893 93.2082 26.2438V20.9823H95.162ZM99.3508 22.3877C99.6822 21.9306 100.133 21.5593 100.705 21.2737C101.287 20.9766 101.933 20.8281 102.641 20.8281C103.475 20.8281 104.23 21.028 104.904 21.4279C105.578 21.8278 106.109 22.3991 106.498 23.1418C106.886 23.873 107.08 24.7128 107.08 25.6611C107.08 26.6094 106.886 27.4606 106.498 28.2147C106.109 28.9574 105.572 29.5401 104.887 29.9628C104.212 30.3741 103.464 30.5798 102.641 30.5798C101.91 30.5798 101.259 30.437 100.688 30.1513C100.128 29.8657 99.6822 29.5001 99.3508 29.0545V30.4255H97.3971V17.7432H99.3508V22.3877ZM105.092 25.6611C105.092 25.0098 104.955 24.45 104.681 23.9815C104.418 23.5017 104.064 23.1418 103.618 22.9018C103.184 22.6505 102.716 22.5248 102.213 22.5248C101.722 22.5248 101.253 22.6505 100.808 22.9018C100.373 23.1532 100.019 23.5188 99.745 23.9987C99.4822 24.4785 99.3508 25.0441 99.3508 25.6954C99.3508 26.3466 99.4822 26.9179 99.745 27.4092C100.019 27.8891 100.373 28.2547 100.808 28.506C101.253 28.7574 101.722 28.8831 102.213 28.8831C102.716 28.8831 103.184 28.7574 103.618 28.506C104.064 28.2433 104.418 27.8662 104.681 27.3749C104.955 26.8836 105.092 26.3123 105.092 25.6611ZM112.127 24.4443C112.127 23.2789 112.396 22.2334 112.933 21.308C113.481 20.3825 114.218 19.6627 115.144 19.1485C116.081 18.623 117.103 18.3602 118.212 18.3602C119.48 18.3602 120.605 18.6744 121.588 19.3028C122.582 19.9198 123.302 20.7995 123.747 21.9421H121.399C121.091 21.3137 120.662 20.8452 120.114 20.5367C119.565 20.2282 118.931 20.074 118.212 20.074C117.423 20.074 116.721 20.2511 116.104 20.6053C115.487 20.9595 115.001 21.4679 114.647 22.1306C114.304 22.7933 114.133 23.5645 114.133 24.4443C114.133 25.324 114.304 26.0953 114.647 26.7579C115.001 27.4206 115.487 27.9348 116.104 28.3004C116.721 28.6546 117.423 28.8317 118.212 28.8317C118.931 28.8317 119.565 28.6774 120.114 28.3689C120.662 28.0604 121.091 27.592 121.399 26.9636H123.747C123.302 28.1061 122.582 28.9859 121.588 29.6029C120.605 30.2199 119.48 30.5284 118.212 30.5284C117.092 30.5284 116.069 30.2713 115.144 29.7571C114.218 29.2316 113.481 28.506 112.933 27.5806C112.396 26.6551 112.127 25.6097 112.127 24.4443ZM126.685 19.7312C126.331 19.7312 126.034 19.6113 125.794 19.3713C125.554 19.1314 125.434 18.8343 125.434 18.4801C125.434 18.1259 125.554 17.8289 125.794 17.5889C126.034 17.349 126.331 17.229 126.685 17.229C127.028 17.229 127.319 17.349 127.559 17.5889C127.799 17.8289 127.919 18.1259 127.919 18.4801C127.919 18.8343 127.799 19.1314 127.559 19.3713C127.319 19.6113 127.028 19.7312 126.685 19.7312ZM127.645 20.9823V30.4255H125.691V20.9823H127.645ZM131.821 22.3534C132.107 21.8735 132.484 21.5022 132.952 21.2394C133.432 20.9652 133.998 20.8281 134.649 20.8281V22.8504H134.152C133.387 22.8504 132.804 23.0446 132.404 23.4331C132.015 23.8216 131.821 24.4957 131.821 25.4554V30.4255H129.867V20.9823H131.821V22.3534ZM135.451 25.6954C135.451 24.7242 135.645 23.873 136.034 23.1418C136.434 22.3991 136.982 21.8278 137.679 21.4279C138.376 21.028 139.176 20.8281 140.078 20.8281C141.221 20.8281 142.163 21.1023 142.906 21.6507C143.66 22.1877 144.169 22.9589 144.431 23.9644H142.323C142.152 23.4959 141.878 23.1303 141.501 22.8675C141.124 22.6048 140.65 22.4734 140.078 22.4734C139.278 22.4734 138.639 22.759 138.159 23.3303C137.69 23.8901 137.456 24.6785 137.456 25.6954C137.456 26.7122 137.69 27.5063 138.159 28.0776C138.639 28.6489 139.278 28.9345 140.078 28.9345C141.209 28.9345 141.958 28.4375 142.323 27.4435H144.431C144.157 28.4032 143.643 29.1687 142.889 29.74C142.135 30.2999 141.198 30.5798 140.078 30.5798C139.176 30.5798 138.376 30.3798 137.679 29.9799C136.982 29.5686 136.434 28.9973 136.034 28.2661C135.645 27.5234 135.451 26.6665 135.451 25.6954ZM147.989 17.7432V30.4255H146.036V17.7432H147.989ZM158.867 25.4726C158.867 25.8268 158.844 26.1467 158.798 26.4323H151.583C151.64 27.1864 151.92 27.7919 152.423 28.249C152.925 28.706 153.542 28.9345 154.274 28.9345C155.325 28.9345 156.067 28.4946 156.502 27.6149H158.61C158.324 28.4832 157.804 29.1973 157.05 29.7571C156.307 30.3056 155.382 30.5798 154.274 30.5798C153.371 30.5798 152.56 30.3798 151.84 29.9799C151.132 29.5686 150.572 28.9973 150.16 28.2661C149.761 27.5234 149.561 26.6665 149.561 25.6954C149.561 24.7242 149.755 23.873 150.143 23.1418C150.543 22.3991 151.097 21.8278 151.806 21.4279C152.525 21.028 153.348 20.8281 154.274 20.8281C155.165 20.8281 155.959 21.0223 156.656 21.4108C157.353 21.7993 157.895 22.3477 158.284 23.0561C158.672 23.753 158.867 24.5585 158.867 25.4726ZM156.827 24.8556C156.816 24.1358 156.559 23.5588 156.056 23.1246C155.553 22.6904 154.931 22.4734 154.188 22.4734C153.514 22.4734 152.937 22.6904 152.457 23.1246C151.977 23.5474 151.691 24.1244 151.6 24.8556H156.827Z" fill="white"/>
</svg>
